<mxfile host="Electron" agent="Mozilla/5.0 (Windows NT 10.0; Win64; x64) AppleWebKit/537.36 (KHTML, like Gecko) draw.io/26.2.2 Chrome/134.0.6998.178 Electron/35.1.2 Safari/537.36" version="26.2.2" pages="2">
  <diagram name="C1" id="rXQmCZFCkTnwYPxRZtzK">
    <mxGraphModel dx="3346" dy="1273" grid="1" gridSize="10" guides="1" tooltips="1" connect="1" arrows="1" fold="1" page="1" pageScale="1" pageWidth="1169" pageHeight="827" math="0" shadow="0">
      <root>
        <mxCell id="0" />
        <mxCell id="1" parent="0" />
        <object placeholders="1" c4Name="Клиент" c4Type="Person" c4Description="Пользователь системы интернет банка" label="&lt;font style=&quot;font-size: 16px&quot;&gt;&lt;b&gt;%c4Name%&lt;/b&gt;&lt;/font&gt;&lt;div&gt;[%c4Type%]&lt;/div&gt;&lt;br&gt;&lt;div&gt;&lt;font style=&quot;font-size: 11px&quot;&gt;&lt;font color=&quot;#cccccc&quot;&gt;%c4Description%&lt;/font&gt;&lt;/div&gt;" id="N7DfTkjICDuPw6HVWsIA-1">
          <mxCell style="html=1;fontSize=11;dashed=0;whiteSpace=wrap;fillColor=#6C6477;strokeColor=#4D4D4D;fontColor=#ffffff;shape=mxgraph.c4.person2;align=center;metaEdit=1;points=[[0.5,0,0],[1,0.5,0],[1,0.75,0],[0.75,1,0],[0.5,1,0],[0.25,1,0],[0,0.75,0],[0,0.5,0]];resizable=0;" vertex="1" parent="1">
            <mxGeometry x="360" y="40" width="200" height="180" as="geometry" />
          </mxCell>
        </object>
        <object placeholders="1" c4Name="Менеджер кол-центра" c4Type="Person" c4Description="Сотрудник кол-центра банка" label="&lt;font style=&quot;font-size: 16px&quot;&gt;&lt;b&gt;%c4Name%&lt;/b&gt;&lt;/font&gt;&lt;div&gt;[%c4Type%]&lt;/div&gt;&lt;br&gt;&lt;div&gt;&lt;font style=&quot;font-size: 11px&quot;&gt;&lt;font color=&quot;#cccccc&quot;&gt;%c4Description%&lt;/font&gt;&lt;/div&gt;" id="N7DfTkjICDuPw6HVWsIA-2">
          <mxCell style="html=1;fontSize=11;dashed=0;whiteSpace=wrap;fillColor=#083F75;strokeColor=#06315C;fontColor=#ffffff;shape=mxgraph.c4.person2;align=center;metaEdit=1;points=[[0.5,0,0],[1,0.5,0],[1,0.75,0],[0.75,1,0],[0.5,1,0],[0.25,1,0],[0,0.75,0],[0,0.5,0]];resizable=0;" vertex="1" parent="1">
            <mxGeometry x="940" y="290" width="200" height="180" as="geometry" />
          </mxCell>
        </object>
        <object placeholders="1" c4Name="Фронт офис" c4Type="Person" c4Description="Description of person." label="&lt;font style=&quot;font-size: 16px&quot;&gt;&lt;b&gt;%c4Name%&lt;/b&gt;&lt;/font&gt;&lt;div&gt;[%c4Type%]&lt;/div&gt;&lt;br&gt;&lt;div&gt;&lt;font style=&quot;font-size: 11px&quot;&gt;&lt;font color=&quot;#cccccc&quot;&gt;%c4Description%&lt;/font&gt;&lt;/div&gt;" id="N7DfTkjICDuPw6HVWsIA-3">
          <mxCell style="html=1;fontSize=11;dashed=0;whiteSpace=wrap;fillColor=#083F75;strokeColor=#06315C;fontColor=#ffffff;shape=mxgraph.c4.person2;align=center;metaEdit=1;points=[[0.5,0,0],[1,0.5,0],[1,0.75,0],[0.75,1,0],[0.5,1,0],[0.25,1,0],[0,0.75,0],[0,0.5,0]];resizable=0;" vertex="1" parent="1">
            <mxGeometry x="960" y="510" width="200" height="180" as="geometry" />
          </mxCell>
        </object>
        <object placeholders="1" c4Name="Standart Bank" c4Type="SystemScopeBoundary" c4Application="Software System" label="&lt;font style=&quot;font-size: 16px&quot;&gt;&lt;b&gt;&lt;div style=&quot;text-align: left&quot;&gt;%c4Name%&lt;/div&gt;&lt;/b&gt;&lt;/font&gt;&lt;div style=&quot;text-align: left&quot;&gt;[%c4Application%]&lt;/div&gt;" id="N7DfTkjICDuPw6HVWsIA-4">
          <mxCell style="rounded=1;fontSize=11;whiteSpace=wrap;html=1;dashed=1;arcSize=20;fillColor=none;strokeColor=#666666;fontColor=#333333;labelBackgroundColor=none;align=left;verticalAlign=bottom;labelBorderColor=none;spacingTop=0;spacing=10;dashPattern=8 4;metaEdit=1;rotatable=0;perimeter=rectanglePerimeter;noLabel=0;labelPadding=0;allowArrows=0;connectable=0;expand=0;recursiveResize=0;editable=1;pointerEvents=0;absoluteArcSize=1;points=[[0.25,0,0],[0.5,0,0],[0.75,0,0],[1,0.25,0],[1,0.5,0],[1,0.75,0],[0.75,1,0],[0.5,1,0],[0.25,1,0],[0,0.75,0],[0,0.5,0],[0,0.25,0]];" vertex="1" parent="1">
            <mxGeometry x="50" y="260" width="830" height="970" as="geometry" />
          </mxCell>
        </object>
        <object placeholders="1" c4Name="Интернет Банк" c4Type="Software System" c4Description="Ядро на аутсорсе" label="&lt;font style=&quot;font-size: 16px&quot;&gt;&lt;b&gt;%c4Name%&lt;/b&gt;&lt;/font&gt;&lt;div&gt;[%c4Type%]&lt;/div&gt;&lt;br&gt;&lt;div&gt;&lt;font style=&quot;font-size: 11px&quot;&gt;&lt;font color=&quot;#cccccc&quot;&gt;%c4Description%&lt;/font&gt;&lt;/div&gt;" id="N7DfTkjICDuPw6HVWsIA-5">
          <mxCell style="rounded=1;whiteSpace=wrap;html=1;labelBackgroundColor=none;fillColor=#1061B0;fontColor=#ffffff;align=center;arcSize=10;strokeColor=#0D5091;metaEdit=1;resizable=0;points=[[0.25,0,0],[0.5,0,0],[0.75,0,0],[1,0.25,0],[1,0.5,0],[1,0.75,0],[0.75,1,0],[0.5,1,0],[0.25,1,0],[0,0.75,0],[0,0.5,0],[0,0.25,0]];" vertex="1" parent="1">
            <mxGeometry x="140" y="540" width="240" height="120" as="geometry" />
          </mxCell>
        </object>
        <object placeholders="1" c4Name="АБС" c4Type="Software System" c4Description="Автоматизированная банковская система" label="&lt;font style=&quot;font-size: 16px&quot;&gt;&lt;b&gt;%c4Name%&lt;/b&gt;&lt;/font&gt;&lt;div&gt;[%c4Type%]&lt;/div&gt;&lt;br&gt;&lt;div&gt;&lt;font style=&quot;font-size: 11px&quot;&gt;&lt;font color=&quot;#cccccc&quot;&gt;%c4Description%&lt;/font&gt;&lt;/div&gt;" id="N7DfTkjICDuPw6HVWsIA-6">
          <mxCell style="rounded=1;whiteSpace=wrap;html=1;labelBackgroundColor=none;fillColor=#1061B0;fontColor=#ffffff;align=center;arcSize=10;strokeColor=#0D5091;metaEdit=1;resizable=0;points=[[0.25,0,0],[0.5,0,0],[0.75,0,0],[1,0.25,0],[1,0.5,0],[1,0.75,0],[0.75,1,0],[0.5,1,0],[0.25,1,0],[0,0.75,0],[0,0.5,0],[0,0.25,0]];" vertex="1" parent="1">
            <mxGeometry x="550" y="790" width="240" height="120" as="geometry" />
          </mxCell>
        </object>
        <object placeholders="1" c4Name="Кол центр" c4Type="Software System" c4Description="Покупная система" label="&lt;font style=&quot;font-size: 16px&quot;&gt;&lt;b&gt;%c4Name%&lt;/b&gt;&lt;/font&gt;&lt;div&gt;[%c4Type%]&lt;/div&gt;&lt;br&gt;&lt;div&gt;&lt;font style=&quot;font-size: 11px&quot;&gt;&lt;font color=&quot;#cccccc&quot;&gt;%c4Description%&lt;/font&gt;&lt;/div&gt;" id="N7DfTkjICDuPw6HVWsIA-7">
          <mxCell style="rounded=1;whiteSpace=wrap;html=1;labelBackgroundColor=none;fillColor=#1061B0;fontColor=#ffffff;align=center;arcSize=10;strokeColor=#0D5091;metaEdit=1;resizable=0;points=[[0.25,0,0],[0.5,0,0],[0.75,0,0],[1,0.25,0],[1,0.5,0],[1,0.75,0],[0.75,1,0],[0.5,1,0],[0.25,1,0],[0,0.75,0],[0,0.5,0],[0,0.25,0]];" vertex="1" parent="1">
            <mxGeometry x="550" y="320" width="240" height="120" as="geometry" />
          </mxCell>
        </object>
        <object placeholders="1" c4Name="Партнёрский кол-центр" c4Type="Software System" c4Description="Другая платформа по сравнению с внутренней" label="&lt;font style=&quot;font-size: 16px&quot;&gt;&lt;b&gt;%c4Name%&lt;/b&gt;&lt;/font&gt;&lt;div&gt;[%c4Type%]&lt;/div&gt;&lt;br&gt;&lt;div&gt;&lt;font style=&quot;font-size: 11px&quot;&gt;&lt;font color=&quot;#cccccc&quot;&gt;%c4Description%&lt;/font&gt;&lt;/div&gt;" id="N7DfTkjICDuPw6HVWsIA-8">
          <mxCell style="rounded=1;whiteSpace=wrap;html=1;labelBackgroundColor=none;fillColor=#8C8496;fontColor=#ffffff;align=center;arcSize=10;strokeColor=#736782;metaEdit=1;resizable=0;points=[[0.25,0,0],[0.5,0,0],[0.75,0,0],[1,0.25,0],[1,0.5,0],[1,0.75,0],[0.75,1,0],[0.5,1,0],[0.25,1,0],[0,0.75,0],[0,0.5,0],[0,0.25,0]];" vertex="1" parent="1">
            <mxGeometry x="140" y="1260" width="240" height="120" as="geometry" />
          </mxCell>
        </object>
        <object placeholders="1" c4Name="Телеком оператор" c4Type="Software System" c4Description="Услуга по отправке СМС" label="&lt;font style=&quot;font-size: 16px&quot;&gt;&lt;b&gt;%c4Name%&lt;/b&gt;&lt;/font&gt;&lt;div&gt;[%c4Type%]&lt;/div&gt;&lt;br&gt;&lt;div&gt;&lt;font style=&quot;font-size: 11px&quot;&gt;&lt;font color=&quot;#cccccc&quot;&gt;%c4Description%&lt;/font&gt;&lt;/div&gt;" id="N7DfTkjICDuPw6HVWsIA-9">
          <mxCell style="rounded=1;whiteSpace=wrap;html=1;labelBackgroundColor=none;fillColor=#8C8496;fontColor=#ffffff;align=center;arcSize=10;strokeColor=#736782;metaEdit=1;resizable=0;points=[[0.25,0,0],[0.5,0,0],[0.75,0,0],[1,0.25,0],[1,0.5,0],[1,0.75,0],[0.75,1,0],[0.5,1,0],[0.25,1,0],[0,0.75,0],[0,0.5,0],[0,0.25,0]];" vertex="1" parent="1">
            <mxGeometry x="550" y="1260" width="240" height="120" as="geometry" />
          </mxCell>
        </object>
        <object placeholders="1" c4Name="СМС шлюз" c4Type="Software System" c4Description="" label="&lt;font style=&quot;font-size: 16px&quot;&gt;&lt;b&gt;%c4Name%&lt;/b&gt;&lt;/font&gt;&lt;div&gt;[%c4Type%]&lt;/div&gt;&lt;br&gt;&lt;div&gt;&lt;font style=&quot;font-size: 11px&quot;&gt;&lt;font color=&quot;#cccccc&quot;&gt;%c4Description%&lt;/font&gt;&lt;/div&gt;" id="N7DfTkjICDuPw6HVWsIA-11">
          <mxCell style="rounded=1;whiteSpace=wrap;html=1;labelBackgroundColor=none;fillColor=#1061B0;fontColor=#ffffff;align=center;arcSize=10;strokeColor=#0D5091;metaEdit=1;resizable=0;points=[[0.25,0,0],[0.5,0,0],[0.75,0,0],[1,0.25,0],[1,0.5,0],[1,0.75,0],[0.75,1,0],[0.5,1,0],[0.25,1,0],[0,0.75,0],[0,0.5,0],[0,0.25,0]];" vertex="1" parent="1">
            <mxGeometry x="140" y="790" width="240" height="120" as="geometry" />
          </mxCell>
        </object>
        <object placeholders="1" c4Name="Сайт" c4Type="Software System" c4Description="" label="&lt;font style=&quot;font-size: 16px&quot;&gt;&lt;b&gt;%c4Name%&lt;/b&gt;&lt;/font&gt;&lt;div&gt;[%c4Type%]&lt;/div&gt;&lt;br&gt;&lt;div&gt;&lt;font style=&quot;font-size: 11px&quot;&gt;&lt;font color=&quot;#cccccc&quot;&gt;%c4Description%&lt;/font&gt;&lt;/div&gt;" id="N7DfTkjICDuPw6HVWsIA-13">
          <mxCell style="rounded=1;whiteSpace=wrap;html=1;labelBackgroundColor=none;fillColor=#1061B0;fontColor=#ffffff;align=center;arcSize=10;strokeColor=#0D5091;metaEdit=1;resizable=0;points=[[0.25,0,0],[0.5,0,0],[0.75,0,0],[1,0.25,0],[1,0.5,0],[1,0.75,0],[0.75,1,0],[0.5,1,0],[0.25,1,0],[0,0.75,0],[0,0.5,0],[0,0.25,0]];" vertex="1" parent="1">
            <mxGeometry x="140" y="320" width="240" height="120" as="geometry" />
          </mxCell>
        </object>
        <mxCell id="N7DfTkjICDuPw6HVWsIA-14" style="edgeStyle=orthogonalEdgeStyle;rounded=0;orthogonalLoop=1;jettySize=auto;html=1;entryX=0;entryY=0.5;entryDx=0;entryDy=0;entryPerimeter=0;" edge="1" parent="1" source="N7DfTkjICDuPw6HVWsIA-5" target="SzUtMaSxSGTat92QCDAJ-1">
          <mxGeometry relative="1" as="geometry" />
        </mxCell>
        <mxCell id="N7DfTkjICDuPw6HVWsIA-37" value="Взаимодействие с БД" style="edgeLabel;html=1;align=center;verticalAlign=middle;resizable=0;points=[];" vertex="1" connectable="0" parent="N7DfTkjICDuPw6HVWsIA-14">
          <mxGeometry x="-0.125" relative="1" as="geometry">
            <mxPoint as="offset" />
          </mxGeometry>
        </mxCell>
        <mxCell id="N7DfTkjICDuPw6HVWsIA-15" style="edgeStyle=orthogonalEdgeStyle;rounded=0;orthogonalLoop=1;jettySize=auto;html=1;entryX=0.5;entryY=0;entryDx=0;entryDy=0;entryPerimeter=0;exitX=0.25;exitY=1;exitDx=0;exitDy=0;exitPerimeter=0;" edge="1" parent="1" source="N7DfTkjICDuPw6HVWsIA-1" target="N7DfTkjICDuPw6HVWsIA-13">
          <mxGeometry relative="1" as="geometry" />
        </mxCell>
        <mxCell id="N7DfTkjICDuPw6HVWsIA-39" value="Использует" style="edgeLabel;html=1;align=center;verticalAlign=middle;resizable=0;points=[];" vertex="1" connectable="0" parent="N7DfTkjICDuPw6HVWsIA-15">
          <mxGeometry x="0.016" y="-1" relative="1" as="geometry">
            <mxPoint as="offset" />
          </mxGeometry>
        </mxCell>
        <mxCell id="N7DfTkjICDuPw6HVWsIA-17" style="edgeStyle=orthogonalEdgeStyle;rounded=0;orthogonalLoop=1;jettySize=auto;html=1;entryX=1;entryY=0.5;entryDx=0;entryDy=0;entryPerimeter=0;exitX=0;exitY=0.5;exitDx=0;exitDy=0;exitPerimeter=0;" edge="1" parent="1" source="N7DfTkjICDuPw6HVWsIA-6" target="N7DfTkjICDuPw6HVWsIA-11">
          <mxGeometry relative="1" as="geometry" />
        </mxCell>
        <mxCell id="N7DfTkjICDuPw6HVWsIA-33" value="Уведомление" style="edgeLabel;html=1;align=center;verticalAlign=middle;resizable=0;points=[];" vertex="1" connectable="0" parent="N7DfTkjICDuPw6HVWsIA-17">
          <mxGeometry x="-0.0085" relative="1" as="geometry">
            <mxPoint as="offset" />
          </mxGeometry>
        </mxCell>
        <object placeholders="1" c4Name="Бэк офис" c4Type="Person" c4Description="Description of person." label="&lt;font style=&quot;font-size: 16px&quot;&gt;&lt;b&gt;%c4Name%&lt;/b&gt;&lt;/font&gt;&lt;div&gt;[%c4Type%]&lt;/div&gt;&lt;br&gt;&lt;div&gt;&lt;font style=&quot;font-size: 11px&quot;&gt;&lt;font color=&quot;#cccccc&quot;&gt;%c4Description%&lt;/font&gt;&lt;/div&gt;" id="N7DfTkjICDuPw6HVWsIA-18">
          <mxCell style="html=1;fontSize=11;dashed=0;whiteSpace=wrap;fillColor=#083F75;strokeColor=#06315C;fontColor=#ffffff;shape=mxgraph.c4.person2;align=center;metaEdit=1;points=[[0.5,0,0],[1,0.5,0],[1,0.75,0],[0.75,1,0],[0.5,1,0],[0.25,1,0],[0,0.75,0],[0,0.5,0]];resizable=0;" vertex="1" parent="1">
            <mxGeometry x="969" y="760" width="200" height="180" as="geometry" />
          </mxCell>
        </object>
        <mxCell id="N7DfTkjICDuPw6HVWsIA-19" style="edgeStyle=orthogonalEdgeStyle;rounded=0;orthogonalLoop=1;jettySize=auto;html=1;entryX=1;entryY=0.5;entryDx=0;entryDy=0;entryPerimeter=0;" edge="1" parent="1" source="N7DfTkjICDuPw6HVWsIA-2" target="N7DfTkjICDuPw6HVWsIA-7">
          <mxGeometry relative="1" as="geometry" />
        </mxCell>
        <mxCell id="N7DfTkjICDuPw6HVWsIA-35" value="Взаимодействие" style="edgeLabel;html=1;align=center;verticalAlign=middle;resizable=0;points=[];" vertex="1" connectable="0" parent="N7DfTkjICDuPw6HVWsIA-19">
          <mxGeometry x="0.08" y="-4" relative="1" as="geometry">
            <mxPoint as="offset" />
          </mxGeometry>
        </mxCell>
        <mxCell id="N7DfTkjICDuPw6HVWsIA-20" style="edgeStyle=orthogonalEdgeStyle;rounded=0;orthogonalLoop=1;jettySize=auto;html=1;entryX=0.75;entryY=1;entryDx=0;entryDy=0;entryPerimeter=0;" edge="1" parent="1" source="N7DfTkjICDuPw6HVWsIA-7" target="N7DfTkjICDuPw6HVWsIA-1">
          <mxGeometry relative="1" as="geometry" />
        </mxCell>
        <mxCell id="N7DfTkjICDuPw6HVWsIA-38" value="Канал коммуникаций" style="edgeLabel;html=1;align=center;verticalAlign=middle;resizable=0;points=[];" vertex="1" connectable="0" parent="N7DfTkjICDuPw6HVWsIA-20">
          <mxGeometry x="0.0923" y="1" relative="1" as="geometry">
            <mxPoint as="offset" />
          </mxGeometry>
        </mxCell>
        <mxCell id="N7DfTkjICDuPw6HVWsIA-21" style="edgeStyle=orthogonalEdgeStyle;rounded=0;orthogonalLoop=1;jettySize=auto;html=1;entryX=0.25;entryY=0;entryDx=0;entryDy=0;entryPerimeter=0;" edge="1" parent="1" source="N7DfTkjICDuPw6HVWsIA-11" target="N7DfTkjICDuPw6HVWsIA-9">
          <mxGeometry relative="1" as="geometry">
            <Array as="points">
              <mxPoint x="260" y="960" />
              <mxPoint x="610" y="960" />
            </Array>
          </mxGeometry>
        </mxCell>
        <mxCell id="N7DfTkjICDuPw6HVWsIA-34" value="Взаимодействие" style="edgeLabel;html=1;align=center;verticalAlign=middle;resizable=0;points=[];" vertex="1" connectable="0" parent="N7DfTkjICDuPw6HVWsIA-21">
          <mxGeometry x="-0.1811" y="2" relative="1" as="geometry">
            <mxPoint as="offset" />
          </mxGeometry>
        </mxCell>
        <mxCell id="N7DfTkjICDuPw6HVWsIA-22" style="edgeStyle=orthogonalEdgeStyle;rounded=0;orthogonalLoop=1;jettySize=auto;html=1;entryX=1;entryY=0.75;entryDx=0;entryDy=0;entryPerimeter=0;" edge="1" parent="1" source="N7DfTkjICDuPw6HVWsIA-18" target="N7DfTkjICDuPw6HVWsIA-6">
          <mxGeometry relative="1" as="geometry">
            <Array as="points">
              <mxPoint x="930" y="880" />
              <mxPoint x="930" y="880" />
            </Array>
          </mxGeometry>
        </mxCell>
        <mxCell id="N7DfTkjICDuPw6HVWsIA-36" value="Взаимодействие" style="edgeLabel;html=1;align=center;verticalAlign=middle;resizable=0;points=[];" vertex="1" connectable="0" parent="N7DfTkjICDuPw6HVWsIA-22">
          <mxGeometry x="0.35" y="-1" relative="1" as="geometry">
            <mxPoint x="52" as="offset" />
          </mxGeometry>
        </mxCell>
        <mxCell id="N7DfTkjICDuPw6HVWsIA-23" style="edgeStyle=orthogonalEdgeStyle;rounded=0;orthogonalLoop=1;jettySize=auto;html=1;entryX=1;entryY=0.75;entryDx=0;entryDy=0;entryPerimeter=0;" edge="1" parent="1" source="N7DfTkjICDuPw6HVWsIA-3" target="N7DfTkjICDuPw6HVWsIA-7">
          <mxGeometry relative="1" as="geometry" />
        </mxCell>
        <mxCell id="N7DfTkjICDuPw6HVWsIA-30" value="Коммуникации &lt;br&gt;с клиентами" style="edgeLabel;html=1;align=center;verticalAlign=middle;resizable=0;points=[];" vertex="1" connectable="0" parent="N7DfTkjICDuPw6HVWsIA-23">
          <mxGeometry x="-0.4915" y="1" relative="1" as="geometry">
            <mxPoint as="offset" />
          </mxGeometry>
        </mxCell>
        <mxCell id="N7DfTkjICDuPw6HVWsIA-24" style="edgeStyle=orthogonalEdgeStyle;rounded=0;orthogonalLoop=1;jettySize=auto;html=1;entryX=1;entryY=0.75;entryDx=0;entryDy=0;entryPerimeter=0;" edge="1" parent="1" source="N7DfTkjICDuPw6HVWsIA-3" target="N7DfTkjICDuPw6HVWsIA-1">
          <mxGeometry relative="1" as="geometry">
            <Array as="points">
              <mxPoint x="1210" y="600" />
              <mxPoint x="1210" y="175" />
            </Array>
          </mxGeometry>
        </mxCell>
        <mxCell id="N7DfTkjICDuPw6HVWsIA-29" value="Обслуживание &lt;br&gt;в отделении" style="edgeLabel;html=1;align=center;verticalAlign=middle;resizable=0;points=[];" vertex="1" connectable="0" parent="N7DfTkjICDuPw6HVWsIA-24">
          <mxGeometry x="-0.786" y="-2" relative="1" as="geometry">
            <mxPoint as="offset" />
          </mxGeometry>
        </mxCell>
        <mxCell id="N7DfTkjICDuPw6HVWsIA-25" style="edgeStyle=orthogonalEdgeStyle;rounded=0;orthogonalLoop=1;jettySize=auto;html=1;entryX=0.5;entryY=0;entryDx=0;entryDy=0;entryPerimeter=0;" edge="1" parent="1" source="N7DfTkjICDuPw6HVWsIA-13" target="N7DfTkjICDuPw6HVWsIA-5">
          <mxGeometry relative="1" as="geometry" />
        </mxCell>
        <mxCell id="N7DfTkjICDuPw6HVWsIA-40" value="API вызовы" style="edgeLabel;html=1;align=center;verticalAlign=middle;resizable=0;points=[];" vertex="1" connectable="0" parent="N7DfTkjICDuPw6HVWsIA-25">
          <mxGeometry y="-3" relative="1" as="geometry">
            <mxPoint as="offset" />
          </mxGeometry>
        </mxCell>
        <mxCell id="N7DfTkjICDuPw6HVWsIA-26" style="edgeStyle=orthogonalEdgeStyle;rounded=0;orthogonalLoop=1;jettySize=auto;html=1;entryX=1;entryY=0.25;entryDx=0;entryDy=0;entryPerimeter=0;" edge="1" parent="1" source="N7DfTkjICDuPw6HVWsIA-3" target="N7DfTkjICDuPw6HVWsIA-6">
          <mxGeometry relative="1" as="geometry">
            <Array as="points">
              <mxPoint x="875" y="650" />
              <mxPoint x="875" y="820" />
            </Array>
          </mxGeometry>
        </mxCell>
        <mxCell id="N7DfTkjICDuPw6HVWsIA-31" value="Взаимодействие" style="edgeLabel;html=1;align=center;verticalAlign=middle;resizable=0;points=[];" vertex="1" connectable="0" parent="N7DfTkjICDuPw6HVWsIA-26">
          <mxGeometry x="-0.397" y="-3" relative="1" as="geometry">
            <mxPoint as="offset" />
          </mxGeometry>
        </mxCell>
        <mxCell id="N7DfTkjICDuPw6HVWsIA-27" style="edgeStyle=orthogonalEdgeStyle;rounded=0;orthogonalLoop=1;jettySize=auto;html=1;entryX=1;entryY=0.5;entryDx=0;entryDy=0;entryPerimeter=0;exitX=0.75;exitY=0;exitDx=0;exitDy=0;exitPerimeter=0;" edge="1" parent="1" source="N7DfTkjICDuPw6HVWsIA-9" target="N7DfTkjICDuPw6HVWsIA-1">
          <mxGeometry relative="1" as="geometry">
            <Array as="points">
              <mxPoint x="730" y="1090" />
              <mxPoint x="1240" y="1090" />
              <mxPoint x="1240" y="130" />
            </Array>
          </mxGeometry>
        </mxCell>
        <mxCell id="N7DfTkjICDuPw6HVWsIA-32" value="СМС уведомление" style="edgeLabel;html=1;align=center;verticalAlign=middle;resizable=0;points=[];" vertex="1" connectable="0" parent="N7DfTkjICDuPw6HVWsIA-27">
          <mxGeometry x="-0.8498" y="-3" relative="1" as="geometry">
            <mxPoint y="77" as="offset" />
          </mxGeometry>
        </mxCell>
        <object placeholders="1" c4Name="Oracle RAC" c4Type="Software System" c4Description="Кластерное решение для баз данных Oracle" label="&lt;font style=&quot;font-size: 16px&quot;&gt;&lt;b&gt;%c4Name%&lt;/b&gt;&lt;/font&gt;&lt;div&gt;[%c4Type%]&lt;/div&gt;&lt;br&gt;&lt;div&gt;&lt;font style=&quot;font-size: 11px&quot;&gt;&lt;font color=&quot;#cccccc&quot;&gt;%c4Description%&lt;/font&gt;&lt;/div&gt;" id="SzUtMaSxSGTat92QCDAJ-1">
          <mxCell style="rounded=1;whiteSpace=wrap;html=1;labelBackgroundColor=none;fillColor=#1061B0;fontColor=#ffffff;align=center;arcSize=10;strokeColor=#0D5091;metaEdit=1;resizable=0;points=[[0.25,0,0],[0.5,0,0],[0.75,0,0],[1,0.25,0],[1,0.5,0],[1,0.75,0],[0.75,1,0],[0.5,1,0],[0.25,1,0],[0,0.75,0],[0,0.5,0],[0,0.25,0]];" vertex="1" parent="1">
            <mxGeometry x="550" y="540" width="240" height="120" as="geometry" />
          </mxCell>
        </object>
        <mxCell id="SzUtMaSxSGTat92QCDAJ-2" style="edgeStyle=orthogonalEdgeStyle;rounded=0;orthogonalLoop=1;jettySize=auto;html=1;entryX=0.5;entryY=1;entryDx=0;entryDy=0;entryPerimeter=0;" edge="1" parent="1" source="N7DfTkjICDuPw6HVWsIA-6" target="SzUtMaSxSGTat92QCDAJ-1">
          <mxGeometry relative="1" as="geometry" />
        </mxCell>
        <mxCell id="SzUtMaSxSGTat92QCDAJ-4" value="Взаимодействие с БД" style="edgeLabel;html=1;align=center;verticalAlign=middle;resizable=0;points=[];" vertex="1" connectable="0" parent="SzUtMaSxSGTat92QCDAJ-2">
          <mxGeometry x="0.004" y="-2" relative="1" as="geometry">
            <mxPoint y="25" as="offset" />
          </mxGeometry>
        </mxCell>
        <mxCell id="SzUtMaSxSGTat92QCDAJ-5" value="Механизмы интеграции партнерского кол-центра в ИТ системы банка требуют уточнения, вполне возможно их буквально нет и просто используется почта" style="text;html=1;align=center;verticalAlign=middle;whiteSpace=wrap;rounded=0;strokeColor=default;dashed=1;" vertex="1" parent="1">
          <mxGeometry x="170" y="1480" width="180" height="96" as="geometry" />
        </mxCell>
        <mxCell id="SzUtMaSxSGTat92QCDAJ-6" style="edgeStyle=orthogonalEdgeStyle;rounded=0;orthogonalLoop=1;jettySize=auto;html=1;entryX=0.5;entryY=1;entryDx=0;entryDy=0;entryPerimeter=0;dashed=1;" edge="1" parent="1" source="SzUtMaSxSGTat92QCDAJ-5" target="N7DfTkjICDuPw6HVWsIA-8">
          <mxGeometry relative="1" as="geometry" />
        </mxCell>
        <mxCell id="SzUtMaSxSGTat92QCDAJ-7" value="В плане трудозатрат отличное решение. Появляется горизонтальное масштабирование, надёжность, безопасность данных, резервные копии, сохраняется обратная совместимость, т.е. команде разработки ничего делать не нужно для перехода.&lt;div&gt;&lt;br&gt;&lt;/div&gt;&lt;div&gt;Но стоит учесть высокую стоимость такого решения и повышенные требования к команде инженеров для развёртывания. Возможна необходимость в привлечении внешних консультантов для первичной настройки.&lt;/div&gt;" style="text;html=1;align=center;verticalAlign=middle;whiteSpace=wrap;rounded=0;strokeColor=default;dashed=1;" vertex="1" parent="1">
          <mxGeometry x="1270" y="627" width="290" height="193" as="geometry" />
        </mxCell>
        <mxCell id="SzUtMaSxSGTat92QCDAJ-8" style="edgeStyle=orthogonalEdgeStyle;rounded=0;orthogonalLoop=1;jettySize=auto;html=1;entryX=0.75;entryY=1;entryDx=0;entryDy=0;entryPerimeter=0;dashed=1;" edge="1" parent="1" source="SzUtMaSxSGTat92QCDAJ-7" target="SzUtMaSxSGTat92QCDAJ-1">
          <mxGeometry relative="1" as="geometry" />
        </mxCell>
        <mxCell id="SzUtMaSxSGTat92QCDAJ-9" value="В дальнейшем имеет смысл в целом сделать отдельный сервис уведомлений, поскольку СМС - это дорого, накладно и старомодно." style="text;html=1;align=center;verticalAlign=middle;whiteSpace=wrap;rounded=0;strokeColor=default;dashed=1;" vertex="1" parent="1">
          <mxGeometry x="-280" y="810" width="240" height="80" as="geometry" />
        </mxCell>
        <mxCell id="SzUtMaSxSGTat92QCDAJ-10" style="edgeStyle=orthogonalEdgeStyle;rounded=0;orthogonalLoop=1;jettySize=auto;html=1;entryX=0;entryY=0.5;entryDx=0;entryDy=0;entryPerimeter=0;dashed=1;" edge="1" parent="1" source="SzUtMaSxSGTat92QCDAJ-9" target="N7DfTkjICDuPw6HVWsIA-11">
          <mxGeometry relative="1" as="geometry" />
        </mxCell>
        <mxCell id="8bsUKu27YTY32ICm6L0n-1" value="&lt;h1 style=&quot;margin-top: 0px;&quot;&gt;По поводу мер обеспечения доступности&lt;/h1&gt;&lt;p&gt;Текущая схема использования Cold Standby является недостаточной. Имеет смысл использовать несколько территориально распределенных ЦОД и распределение нагрузки на уровне DNS. Т.е. нужна схема Active-Active и использование GSLB для балансировки нагрузки.&amp;nbsp;&lt;/p&gt;&lt;p&gt;&lt;span style=&quot;background-color: transparent; color: light-dark(rgb(0, 0, 0), rgb(255, 255, 255));&quot;&gt;В очередной раз это повыщает требования к инженерам. Возможно стоит нанять специалистов с нужной экспертизой или провести обучение для существующих сотрудников.&lt;/span&gt;&lt;/p&gt;" style="text;html=1;whiteSpace=wrap;overflow=hidden;rounded=0;" vertex="1" parent="1">
          <mxGeometry x="-420" y="50" width="400" height="280" as="geometry" />
        </mxCell>
        <object placeholders="1" c4Name="Мониторинг, логирование, трейсинг" c4Type="Software System" c4Description="Все основные компоненты наблюдаемости" label="&lt;font style=&quot;font-size: 16px&quot;&gt;&lt;b&gt;%c4Name%&lt;/b&gt;&lt;/font&gt;&lt;div&gt;[%c4Type%]&lt;/div&gt;&lt;br&gt;&lt;div&gt;&lt;font style=&quot;font-size: 11px&quot;&gt;&lt;font color=&quot;#cccccc&quot;&gt;%c4Description%&lt;/font&gt;&lt;/div&gt;" id="4XTuxI60or7l83Eq80wb-1">
          <mxCell style="rounded=1;whiteSpace=wrap;html=1;labelBackgroundColor=none;fillColor=#1061B0;fontColor=#ffffff;align=center;arcSize=10;strokeColor=#0D5091;metaEdit=1;resizable=0;points=[[0.25,0,0],[0.5,0,0],[0.75,0,0],[1,0.25,0],[1,0.5,0],[1,0.75,0],[0.75,1,0],[0.5,1,0],[0.25,1,0],[0,0.75,0],[0,0.5,0],[0,0.25,0]];" vertex="1" parent="1">
            <mxGeometry x="140" y="1050" width="240" height="120" as="geometry" />
          </mxCell>
        </object>
      </root>
    </mxGraphModel>
  </diagram>
  <diagram id="Zfm2aj9khHLkyDk7R275" name="C2">
    <mxGraphModel dx="1996" dy="484" grid="1" gridSize="10" guides="1" tooltips="1" connect="1" arrows="1" fold="1" page="1" pageScale="1" pageWidth="1169" pageHeight="827" math="0" shadow="0">
      <root>
        <mxCell id="0" />
        <mxCell id="1" parent="0" />
        <object placeholders="1" c4Name="Клиент" c4Type="Person" c4Description="Пользователь системы интернет банка" label="&lt;font style=&quot;font-size: 16px&quot;&gt;&lt;b&gt;%c4Name%&lt;/b&gt;&lt;/font&gt;&lt;div&gt;[%c4Type%]&lt;/div&gt;&lt;br&gt;&lt;div&gt;&lt;font style=&quot;font-size: 11px&quot;&gt;&lt;font color=&quot;#cccccc&quot;&gt;%c4Description%&lt;/font&gt;&lt;/div&gt;" id="xDdKFl7v-tcq0Z0Ji0Xj-1">
          <mxCell style="html=1;fontSize=11;dashed=0;whiteSpace=wrap;fillColor=#6C6477;strokeColor=#4D4D4D;fontColor=#ffffff;shape=mxgraph.c4.person2;align=center;metaEdit=1;points=[[0.5,0,0],[1,0.5,0],[1,0.75,0],[0.75,1,0],[0.5,1,0],[0.25,1,0],[0,0.75,0],[0,0.5,0]];resizable=0;" vertex="1" parent="1">
            <mxGeometry x="360" y="40" width="200" height="180" as="geometry" />
          </mxCell>
        </object>
        <object placeholders="1" c4Name="Менеджер кол-центра" c4Type="Person" c4Description="Сотрудник кол-центра банка" label="&lt;font style=&quot;font-size: 16px&quot;&gt;&lt;b&gt;%c4Name%&lt;/b&gt;&lt;/font&gt;&lt;div&gt;[%c4Type%]&lt;/div&gt;&lt;br&gt;&lt;div&gt;&lt;font style=&quot;font-size: 11px&quot;&gt;&lt;font color=&quot;#cccccc&quot;&gt;%c4Description%&lt;/font&gt;&lt;/div&gt;" id="xDdKFl7v-tcq0Z0Ji0Xj-2">
          <mxCell style="html=1;fontSize=11;dashed=0;whiteSpace=wrap;fillColor=#083F75;strokeColor=#06315C;fontColor=#ffffff;shape=mxgraph.c4.person2;align=center;metaEdit=1;points=[[0.5,0,0],[1,0.5,0],[1,0.75,0],[0.75,1,0],[0.5,1,0],[0.25,1,0],[0,0.75,0],[0,0.5,0]];resizable=0;" vertex="1" parent="1">
            <mxGeometry x="-290" y="100" width="200" height="180" as="geometry" />
          </mxCell>
        </object>
        <object placeholders="1" c4Name="Фронт офис" c4Type="Person" c4Description="Description of person." label="&lt;font style=&quot;font-size: 16px&quot;&gt;&lt;b&gt;%c4Name%&lt;/b&gt;&lt;/font&gt;&lt;div&gt;[%c4Type%]&lt;/div&gt;&lt;br&gt;&lt;div&gt;&lt;font style=&quot;font-size: 11px&quot;&gt;&lt;font color=&quot;#cccccc&quot;&gt;%c4Description%&lt;/font&gt;&lt;/div&gt;" id="xDdKFl7v-tcq0Z0Ji0Xj-3">
          <mxCell style="html=1;fontSize=11;dashed=0;whiteSpace=wrap;fillColor=#083F75;strokeColor=#06315C;fontColor=#ffffff;shape=mxgraph.c4.person2;align=center;metaEdit=1;points=[[0.5,0,0],[1,0.5,0],[1,0.75,0],[0.75,1,0],[0.5,1,0],[0.25,1,0],[0,0.75,0],[0,0.5,0]];resizable=0;" vertex="1" parent="1">
            <mxGeometry x="1720" y="1043" width="200" height="180" as="geometry" />
          </mxCell>
        </object>
        <object placeholders="1" c4Name="Standart Bank" c4Type="SystemScopeBoundary" c4Application="Software System" label="&lt;font style=&quot;font-size: 16px&quot;&gt;&lt;b&gt;&lt;div style=&quot;text-align: left&quot;&gt;%c4Name%&lt;/div&gt;&lt;/b&gt;&lt;/font&gt;&lt;div style=&quot;text-align: left&quot;&gt;[%c4Application%]&lt;/div&gt;" id="xDdKFl7v-tcq0Z0Ji0Xj-4">
          <mxCell style="rounded=1;fontSize=11;whiteSpace=wrap;html=1;dashed=1;arcSize=20;fillColor=none;strokeColor=#666666;fontColor=#333333;labelBackgroundColor=none;align=left;verticalAlign=bottom;labelBorderColor=none;spacingTop=0;spacing=10;dashPattern=8 4;metaEdit=1;rotatable=0;perimeter=rectanglePerimeter;noLabel=0;labelPadding=0;allowArrows=0;connectable=0;expand=0;recursiveResize=0;editable=1;pointerEvents=0;absoluteArcSize=1;points=[[0.25,0,0],[0.5,0,0],[0.75,0,0],[1,0.25,0],[1,0.5,0],[1,0.75,0],[0.75,1,0],[0.5,1,0],[0.25,1,0],[0,0.75,0],[0,0.5,0],[0,0.25,0]];" vertex="1" parent="1">
            <mxGeometry x="50" y="260" width="1630" height="740" as="geometry" />
          </mxCell>
        </object>
        <object placeholders="1" c4Name="Кол центр" c4Type="Software System" c4Description="Покупная система" label="&lt;font style=&quot;font-size: 16px&quot;&gt;&lt;b&gt;%c4Name%&lt;/b&gt;&lt;/font&gt;&lt;div&gt;[%c4Type%]&lt;/div&gt;&lt;br&gt;&lt;div&gt;&lt;font style=&quot;font-size: 11px&quot;&gt;&lt;font color=&quot;#cccccc&quot;&gt;%c4Description%&lt;/font&gt;&lt;/div&gt;" id="xDdKFl7v-tcq0Z0Ji0Xj-7">
          <mxCell style="rounded=1;whiteSpace=wrap;html=1;labelBackgroundColor=none;fillColor=#1061B0;fontColor=#ffffff;align=center;arcSize=10;strokeColor=#0D5091;metaEdit=1;resizable=0;points=[[0.25,0,0],[0.5,0,0],[0.75,0,0],[1,0.25,0],[1,0.5,0],[1,0.75,0],[0.75,1,0],[0.5,1,0],[0.25,1,0],[0,0.75,0],[0,0.5,0],[0,0.25,0]];" vertex="1" parent="1">
            <mxGeometry x="550" y="320" width="240" height="120" as="geometry" />
          </mxCell>
        </object>
        <object placeholders="1" c4Name="Партнёрский кол-центр" c4Type="Software System" c4Description="Другая платформа по сравнению с внутренней" label="&lt;font style=&quot;font-size: 16px&quot;&gt;&lt;b&gt;%c4Name%&lt;/b&gt;&lt;/font&gt;&lt;div&gt;[%c4Type%]&lt;/div&gt;&lt;br&gt;&lt;div&gt;&lt;font style=&quot;font-size: 11px&quot;&gt;&lt;font color=&quot;#cccccc&quot;&gt;%c4Description%&lt;/font&gt;&lt;/div&gt;" id="xDdKFl7v-tcq0Z0Ji0Xj-8">
          <mxCell style="rounded=1;whiteSpace=wrap;html=1;labelBackgroundColor=none;fillColor=#8C8496;fontColor=#ffffff;align=center;arcSize=10;strokeColor=#736782;metaEdit=1;resizable=0;points=[[0.25,0,0],[0.5,0,0],[0.75,0,0],[1,0.25,0],[1,0.5,0],[1,0.75,0],[0.75,1,0],[0.5,1,0],[0.25,1,0],[0,0.75,0],[0,0.5,0],[0,0.25,0]];" vertex="1" parent="1">
            <mxGeometry x="137" y="1325" width="240" height="120" as="geometry" />
          </mxCell>
        </object>
        <object placeholders="1" c4Name="Телеком оператор" c4Type="Software System" c4Description="Услуга по отправке СМС" label="&lt;font style=&quot;font-size: 16px&quot;&gt;&lt;b&gt;%c4Name%&lt;/b&gt;&lt;/font&gt;&lt;div&gt;[%c4Type%]&lt;/div&gt;&lt;br&gt;&lt;div&gt;&lt;font style=&quot;font-size: 11px&quot;&gt;&lt;font color=&quot;#cccccc&quot;&gt;%c4Description%&lt;/font&gt;&lt;/div&gt;" id="xDdKFl7v-tcq0Z0Ji0Xj-9">
          <mxCell style="rounded=1;whiteSpace=wrap;html=1;labelBackgroundColor=none;fillColor=#8C8496;fontColor=#ffffff;align=center;arcSize=10;strokeColor=#736782;metaEdit=1;resizable=0;points=[[0.25,0,0],[0.5,0,0],[0.75,0,0],[1,0.25,0],[1,0.5,0],[1,0.75,0],[0.75,1,0],[0.5,1,0],[0.25,1,0],[0,0.75,0],[0,0.5,0],[0,0.25,0]];" vertex="1" parent="1">
            <mxGeometry x="547" y="1325" width="240" height="120" as="geometry" />
          </mxCell>
        </object>
        <object placeholders="1" c4Name="СМС шлюз" c4Type="Software System" c4Description="Description of software system." label="&lt;font style=&quot;font-size: 16px&quot;&gt;&lt;b&gt;%c4Name%&lt;/b&gt;&lt;/font&gt;&lt;div&gt;[%c4Type%]&lt;/div&gt;&lt;br&gt;&lt;div&gt;&lt;font style=&quot;font-size: 11px&quot;&gt;&lt;font color=&quot;#cccccc&quot;&gt;%c4Description%&lt;/font&gt;&lt;/div&gt;" id="xDdKFl7v-tcq0Z0Ji0Xj-10">
          <mxCell style="rounded=1;whiteSpace=wrap;html=1;labelBackgroundColor=none;fillColor=#1061B0;fontColor=#ffffff;align=center;arcSize=10;strokeColor=#0D5091;metaEdit=1;resizable=0;points=[[0.25,0,0],[0.5,0,0],[0.75,0,0],[1,0.25,0],[1,0.5,0],[1,0.75,0],[0.75,1,0],[0.5,1,0],[0.25,1,0],[0,0.75,0],[0,0.5,0],[0,0.25,0]];" vertex="1" parent="1">
            <mxGeometry x="137" y="1085" width="240" height="120" as="geometry" />
          </mxCell>
        </object>
        <object placeholders="1" c4Name="Сайт" c4Type="Software System" c4Description="" label="&lt;font style=&quot;font-size: 16px&quot;&gt;&lt;b&gt;%c4Name%&lt;/b&gt;&lt;/font&gt;&lt;div&gt;[%c4Type%]&lt;/div&gt;&lt;br&gt;&lt;div&gt;&lt;font style=&quot;font-size: 11px&quot;&gt;&lt;font color=&quot;#cccccc&quot;&gt;%c4Description%&lt;/font&gt;&lt;/div&gt;" id="xDdKFl7v-tcq0Z0Ji0Xj-11">
          <mxCell style="rounded=1;whiteSpace=wrap;html=1;labelBackgroundColor=none;fillColor=#1061B0;fontColor=#ffffff;align=center;arcSize=10;strokeColor=#0D5091;metaEdit=1;resizable=0;points=[[0.25,0,0],[0.5,0,0],[0.75,0,0],[1,0.25,0],[1,0.5,0],[1,0.75,0],[0.75,1,0],[0.5,1,0],[0.25,1,0],[0,0.75,0],[0,0.5,0],[0,0.25,0]];" vertex="1" parent="1">
            <mxGeometry x="140" y="320" width="240" height="120" as="geometry" />
          </mxCell>
        </object>
        <mxCell id="xDdKFl7v-tcq0Z0Ji0Xj-14" style="edgeStyle=orthogonalEdgeStyle;rounded=0;orthogonalLoop=1;jettySize=auto;html=1;entryX=0.5;entryY=0;entryDx=0;entryDy=0;entryPerimeter=0;exitX=0.25;exitY=1;exitDx=0;exitDy=0;exitPerimeter=0;" edge="1" parent="1" source="xDdKFl7v-tcq0Z0Ji0Xj-1" target="xDdKFl7v-tcq0Z0Ji0Xj-11">
          <mxGeometry relative="1" as="geometry" />
        </mxCell>
        <mxCell id="xDdKFl7v-tcq0Z0Ji0Xj-15" value="Использует" style="edgeLabel;html=1;align=center;verticalAlign=middle;resizable=0;points=[];" vertex="1" connectable="0" parent="xDdKFl7v-tcq0Z0Ji0Xj-14">
          <mxGeometry x="0.016" y="-1" relative="1" as="geometry">
            <mxPoint as="offset" />
          </mxGeometry>
        </mxCell>
        <object placeholders="1" c4Name="Бэк офис" c4Type="Person" c4Description="Description of person." label="&lt;font style=&quot;font-size: 16px&quot;&gt;&lt;b&gt;%c4Name%&lt;/b&gt;&lt;/font&gt;&lt;div&gt;[%c4Type%]&lt;/div&gt;&lt;br&gt;&lt;div&gt;&lt;font style=&quot;font-size: 11px&quot;&gt;&lt;font color=&quot;#cccccc&quot;&gt;%c4Description%&lt;/font&gt;&lt;/div&gt;" id="xDdKFl7v-tcq0Z0Ji0Xj-18">
          <mxCell style="html=1;fontSize=11;dashed=0;whiteSpace=wrap;fillColor=#083F75;strokeColor=#06315C;fontColor=#ffffff;shape=mxgraph.c4.person2;align=center;metaEdit=1;points=[[0.5,0,0],[1,0.5,0],[1,0.75,0],[0.75,1,0],[0.5,1,0],[0.25,1,0],[0,0.75,0],[0,0.5,0]];resizable=0;" vertex="1" parent="1">
            <mxGeometry x="1910" y="490" width="200" height="180" as="geometry" />
          </mxCell>
        </object>
        <mxCell id="xDdKFl7v-tcq0Z0Ji0Xj-19" style="edgeStyle=orthogonalEdgeStyle;rounded=0;orthogonalLoop=1;jettySize=auto;html=1;entryX=0.5;entryY=1;entryDx=0;entryDy=0;entryPerimeter=0;" edge="1" parent="1" source="xDdKFl7v-tcq0Z0Ji0Xj-2" target="xDdKFl7v-tcq0Z0Ji0Xj-7">
          <mxGeometry relative="1" as="geometry">
            <Array as="points">
              <mxPoint x="-190" y="460" />
              <mxPoint x="670" y="460" />
            </Array>
          </mxGeometry>
        </mxCell>
        <mxCell id="xDdKFl7v-tcq0Z0Ji0Xj-20" value="Взаимодействие" style="edgeLabel;html=1;align=center;verticalAlign=middle;resizable=0;points=[];" vertex="1" connectable="0" parent="xDdKFl7v-tcq0Z0Ji0Xj-19">
          <mxGeometry x="0.08" y="-4" relative="1" as="geometry">
            <mxPoint x="-383" y="-134" as="offset" />
          </mxGeometry>
        </mxCell>
        <mxCell id="xDdKFl7v-tcq0Z0Ji0Xj-21" style="edgeStyle=orthogonalEdgeStyle;rounded=0;orthogonalLoop=1;jettySize=auto;html=1;entryX=0.75;entryY=1;entryDx=0;entryDy=0;entryPerimeter=0;" edge="1" parent="1" source="xDdKFl7v-tcq0Z0Ji0Xj-7" target="xDdKFl7v-tcq0Z0Ji0Xj-1">
          <mxGeometry relative="1" as="geometry" />
        </mxCell>
        <mxCell id="xDdKFl7v-tcq0Z0Ji0Xj-22" value="Канал коммуникаций" style="edgeLabel;html=1;align=center;verticalAlign=middle;resizable=0;points=[];" vertex="1" connectable="0" parent="xDdKFl7v-tcq0Z0Ji0Xj-21">
          <mxGeometry x="0.0923" y="1" relative="1" as="geometry">
            <mxPoint as="offset" />
          </mxGeometry>
        </mxCell>
        <mxCell id="xDdKFl7v-tcq0Z0Ji0Xj-23" style="edgeStyle=orthogonalEdgeStyle;rounded=0;orthogonalLoop=1;jettySize=auto;html=1;entryX=0.25;entryY=0;entryDx=0;entryDy=0;entryPerimeter=0;" edge="1" parent="1" source="xDdKFl7v-tcq0Z0Ji0Xj-10" target="xDdKFl7v-tcq0Z0Ji0Xj-9">
          <mxGeometry relative="1" as="geometry" />
        </mxCell>
        <mxCell id="xDdKFl7v-tcq0Z0Ji0Xj-24" value="Взаимодействие" style="edgeLabel;html=1;align=center;verticalAlign=middle;resizable=0;points=[];" vertex="1" connectable="0" parent="xDdKFl7v-tcq0Z0Ji0Xj-23">
          <mxGeometry x="-0.1811" y="2" relative="1" as="geometry">
            <mxPoint as="offset" />
          </mxGeometry>
        </mxCell>
        <mxCell id="xDdKFl7v-tcq0Z0Ji0Xj-27" style="edgeStyle=orthogonalEdgeStyle;rounded=0;orthogonalLoop=1;jettySize=auto;html=1;entryX=1;entryY=0.5;entryDx=0;entryDy=0;entryPerimeter=0;" edge="1" parent="1" source="xDdKFl7v-tcq0Z0Ji0Xj-3" target="xDdKFl7v-tcq0Z0Ji0Xj-7">
          <mxGeometry relative="1" as="geometry">
            <Array as="points">
              <mxPoint x="1290" y="1133" />
              <mxPoint x="1290" y="380" />
            </Array>
          </mxGeometry>
        </mxCell>
        <mxCell id="xDdKFl7v-tcq0Z0Ji0Xj-28" value="Коммуникации &lt;br&gt;с клиентами" style="edgeLabel;html=1;align=center;verticalAlign=middle;resizable=0;points=[];" vertex="1" connectable="0" parent="xDdKFl7v-tcq0Z0Ji0Xj-27">
          <mxGeometry x="-0.4915" y="1" relative="1" as="geometry">
            <mxPoint x="330" y="-1" as="offset" />
          </mxGeometry>
        </mxCell>
        <mxCell id="xDdKFl7v-tcq0Z0Ji0Xj-29" style="edgeStyle=orthogonalEdgeStyle;rounded=0;orthogonalLoop=1;jettySize=auto;html=1;entryX=1;entryY=0.75;entryDx=0;entryDy=0;entryPerimeter=0;" edge="1" parent="1" source="xDdKFl7v-tcq0Z0Ji0Xj-3" target="xDdKFl7v-tcq0Z0Ji0Xj-1">
          <mxGeometry relative="1" as="geometry">
            <Array as="points">
              <mxPoint x="1820" y="1020" />
              <mxPoint x="2370" y="1020" />
              <mxPoint x="2370" y="175" />
            </Array>
          </mxGeometry>
        </mxCell>
        <mxCell id="xDdKFl7v-tcq0Z0Ji0Xj-30" value="Обслуживание &lt;br&gt;в отделении" style="edgeLabel;html=1;align=center;verticalAlign=middle;resizable=0;points=[];" vertex="1" connectable="0" parent="xDdKFl7v-tcq0Z0Ji0Xj-29">
          <mxGeometry x="-0.786" y="-2" relative="1" as="geometry">
            <mxPoint as="offset" />
          </mxGeometry>
        </mxCell>
        <mxCell id="xDdKFl7v-tcq0Z0Ji0Xj-35" style="edgeStyle=orthogonalEdgeStyle;rounded=0;orthogonalLoop=1;jettySize=auto;html=1;entryX=1;entryY=0.5;entryDx=0;entryDy=0;entryPerimeter=0;exitX=0.75;exitY=0;exitDx=0;exitDy=0;exitPerimeter=0;" edge="1" parent="1" source="xDdKFl7v-tcq0Z0Ji0Xj-9" target="xDdKFl7v-tcq0Z0Ji0Xj-1">
          <mxGeometry relative="1" as="geometry">
            <Array as="points">
              <mxPoint x="727" y="1150" />
              <mxPoint x="1240" y="1150" />
              <mxPoint x="1240" y="130" />
            </Array>
          </mxGeometry>
        </mxCell>
        <mxCell id="xDdKFl7v-tcq0Z0Ji0Xj-36" value="СМС уведомление" style="edgeLabel;html=1;align=center;verticalAlign=middle;resizable=0;points=[];" vertex="1" connectable="0" parent="xDdKFl7v-tcq0Z0Ji0Xj-35">
          <mxGeometry x="-0.8498" y="-3" relative="1" as="geometry">
            <mxPoint as="offset" />
          </mxGeometry>
        </mxCell>
        <object placeholders="1" c4Name="Интернет банк" c4Type="SystemScopeBoundary" c4Application="Software System" label="&lt;font style=&quot;font-size: 16px&quot;&gt;&lt;b&gt;&lt;div style=&quot;text-align: left&quot;&gt;%c4Name%&lt;/div&gt;&lt;/b&gt;&lt;/font&gt;&lt;div style=&quot;text-align: left&quot;&gt;[%c4Application%]&lt;/div&gt;" id="xDdKFl7v-tcq0Z0Ji0Xj-37">
          <mxCell style="rounded=1;fontSize=11;whiteSpace=wrap;html=1;dashed=1;arcSize=20;fillColor=none;strokeColor=#666666;fontColor=#333333;labelBackgroundColor=none;align=left;verticalAlign=bottom;labelBorderColor=none;spacingTop=0;spacing=10;dashPattern=8 4;metaEdit=1;rotatable=0;perimeter=rectanglePerimeter;noLabel=0;labelPadding=0;allowArrows=0;connectable=0;expand=0;recursiveResize=0;editable=1;pointerEvents=0;absoluteArcSize=1;points=[[0.25,0,0],[0.5,0,0],[0.75,0,0],[1,0.25,0],[1,0.5,0],[1,0.75,0],[0.75,1,0],[0.5,1,0],[0.25,1,0],[0,0.75,0],[0,0.5,0],[0,0.25,0]];" vertex="1" parent="1">
            <mxGeometry x="500" y="490" width="350" height="450" as="geometry" />
          </mxCell>
        </object>
        <object placeholders="1" c4Name="Автоматическая банковская система" c4Type="SystemScopeBoundary" c4Application="Software System" label="&lt;font style=&quot;font-size: 16px&quot;&gt;&lt;b&gt;&lt;div style=&quot;text-align: left&quot;&gt;%c4Name%&lt;/div&gt;&lt;/b&gt;&lt;/font&gt;&lt;div style=&quot;text-align: left&quot;&gt;[%c4Application%]&lt;/div&gt;" id="xDdKFl7v-tcq0Z0Ji0Xj-39">
          <mxCell style="rounded=1;fontSize=11;whiteSpace=wrap;html=1;dashed=1;arcSize=20;fillColor=none;strokeColor=#666666;fontColor=#333333;labelBackgroundColor=none;align=left;verticalAlign=bottom;labelBorderColor=none;spacingTop=0;spacing=10;dashPattern=8 4;metaEdit=1;rotatable=0;perimeter=rectanglePerimeter;noLabel=0;labelPadding=0;allowArrows=0;connectable=0;expand=0;recursiveResize=0;editable=1;pointerEvents=0;absoluteArcSize=1;points=[[0.25,0,0],[0.5,0,0],[0.75,0,0],[1,0.25,0],[1,0.5,0],[1,0.75,0],[0.75,1,0],[0.5,1,0],[0.25,1,0],[0,0.75,0],[0,0.5,0],[0,0.25,0]];" vertex="1" parent="1">
            <mxGeometry x="930" y="700" width="710" height="240" as="geometry" />
          </mxCell>
        </object>
        <object placeholders="1" c4Name="API Gateway" c4Type="Container" c4Technology="APISIX" c4Description="Description of container role/responsibility." label="&lt;font style=&quot;font-size: 16px&quot;&gt;&lt;b&gt;%c4Name%&lt;/b&gt;&lt;/font&gt;&lt;div&gt;[%c4Type%: %c4Technology%]&lt;/div&gt;&lt;br&gt;&lt;div&gt;&lt;font style=&quot;font-size: 11px&quot;&gt;&lt;font color=&quot;#E6E6E6&quot;&gt;%c4Description%&lt;/font&gt;&lt;/div&gt;" id="xDdKFl7v-tcq0Z0Ji0Xj-40">
          <mxCell style="rounded=1;whiteSpace=wrap;html=1;fontSize=11;labelBackgroundColor=none;fillColor=#23A2D9;fontColor=#ffffff;align=center;arcSize=10;strokeColor=#0E7DAD;metaEdit=1;resizable=0;points=[[0.25,0,0],[0.5,0,0],[0.75,0,0],[1,0.25,0],[1,0.5,0],[1,0.75,0],[0.75,1,0],[0.5,1,0],[0.25,1,0],[0,0.75,0],[0,0.5,0],[0,0.25,0]];" vertex="1" parent="1">
            <mxGeometry x="140" y="528" width="240" height="120" as="geometry" />
          </mxCell>
        </object>
        <object placeholders="1" c4Name="Legacy Интернет Банк" c4Type="Software System" c4Description="Старая реализация" label="&lt;font style=&quot;font-size: 16px&quot;&gt;&lt;b&gt;%c4Name%&lt;/b&gt;&lt;/font&gt;&lt;div&gt;[%c4Type%]&lt;/div&gt;&lt;br&gt;&lt;div&gt;&lt;font style=&quot;font-size: 11px&quot;&gt;&lt;font color=&quot;#cccccc&quot;&gt;%c4Description%&lt;/font&gt;&lt;/div&gt;" id="xDdKFl7v-tcq0Z0Ji0Xj-41">
          <mxCell style="rounded=1;whiteSpace=wrap;html=1;labelBackgroundColor=none;fillColor=#1061B0;fontColor=#ffffff;align=center;arcSize=10;strokeColor=#0D5091;metaEdit=1;resizable=0;points=[[0.25,0,0],[0.5,0,0],[0.75,0,0],[1,0.25,0],[1,0.5,0],[1,0.75,0],[0.75,1,0],[0.5,1,0],[0.25,1,0],[0,0.75,0],[0,0.5,0],[0,0.25,0]];" vertex="1" parent="1">
            <mxGeometry x="560" y="528" width="240" height="120" as="geometry" />
          </mxCell>
        </object>
        <object placeholders="1" c4Name="IAM" c4Type="Container" c4Technology="Keycloak" c4Description="AuthN/AuthZ" label="&lt;font style=&quot;font-size: 16px&quot;&gt;&lt;b&gt;%c4Name%&lt;/b&gt;&lt;/font&gt;&lt;div&gt;[%c4Type%: %c4Technology%]&lt;/div&gt;&lt;br&gt;&lt;div&gt;&lt;font style=&quot;font-size: 11px&quot;&gt;&lt;font color=&quot;#E6E6E6&quot;&gt;%c4Description%&lt;/font&gt;&lt;/div&gt;" id="xDdKFl7v-tcq0Z0Ji0Xj-42">
          <mxCell style="rounded=1;whiteSpace=wrap;html=1;fontSize=11;labelBackgroundColor=none;fillColor=#23A2D9;fontColor=#ffffff;align=center;arcSize=10;strokeColor=#0E7DAD;metaEdit=1;resizable=0;points=[[0.25,0,0],[0.5,0,0],[0.75,0,0],[1,0.25,0],[1,0.5,0],[1,0.75,0],[0.75,1,0],[0.5,1,0],[0.25,1,0],[0,0.75,0],[0,0.5,0],[0,0.25,0]];" vertex="1" parent="1">
            <mxGeometry x="140" y="707" width="240" height="120" as="geometry" />
          </mxCell>
        </object>
        <mxCell id="xDdKFl7v-tcq0Z0Ji0Xj-43" style="edgeStyle=orthogonalEdgeStyle;rounded=0;orthogonalLoop=1;jettySize=auto;html=1;entryX=0.5;entryY=0;entryDx=0;entryDy=0;entryPerimeter=0;" edge="1" parent="1" source="xDdKFl7v-tcq0Z0Ji0Xj-40" target="xDdKFl7v-tcq0Z0Ji0Xj-42">
          <mxGeometry relative="1" as="geometry" />
        </mxCell>
        <mxCell id="-zmdmKBO489XgDHY3_64-14" value="OpenID Connect" style="edgeLabel;html=1;align=center;verticalAlign=middle;resizable=0;points=[];" vertex="1" connectable="0" parent="xDdKFl7v-tcq0Z0Ji0Xj-43">
          <mxGeometry x="-0.0628" y="4" relative="1" as="geometry">
            <mxPoint y="-1" as="offset" />
          </mxGeometry>
        </mxCell>
        <mxCell id="xDdKFl7v-tcq0Z0Ji0Xj-44" style="edgeStyle=orthogonalEdgeStyle;rounded=0;orthogonalLoop=1;jettySize=auto;html=1;entryX=0;entryY=0.5;entryDx=0;entryDy=0;entryPerimeter=0;" edge="1" parent="1" source="xDdKFl7v-tcq0Z0Ji0Xj-40" target="xDdKFl7v-tcq0Z0Ji0Xj-41">
          <mxGeometry relative="1" as="geometry" />
        </mxCell>
        <mxCell id="-zmdmKBO489XgDHY3_64-9" value="REST" style="edgeLabel;html=1;align=center;verticalAlign=middle;resizable=0;points=[];" vertex="1" connectable="0" parent="xDdKFl7v-tcq0Z0Ji0Xj-44">
          <mxGeometry x="-0.0157" y="-2" relative="1" as="geometry">
            <mxPoint as="offset" />
          </mxGeometry>
        </mxCell>
        <object placeholders="1" c4Name="Сервис депозитов" c4Type="Container" c4Technology="e.g. Micronaut, etc." c4Description="Микросервис содержит функционал для работы с депозитами" label="&lt;font style=&quot;font-size: 16px&quot;&gt;&lt;b&gt;%c4Name%&lt;/b&gt;&lt;/font&gt;&lt;div&gt;[%c4Type%:&amp;nbsp;%c4Technology%]&lt;/div&gt;&lt;br&gt;&lt;div&gt;&lt;font style=&quot;font-size: 11px&quot;&gt;&lt;font color=&quot;#E6E6E6&quot;&gt;%c4Description%&lt;/font&gt;&lt;/div&gt;" id="xDdKFl7v-tcq0Z0Ji0Xj-45">
          <mxCell style="shape=hexagon;size=50;perimeter=hexagonPerimeter2;whiteSpace=wrap;html=1;fixedSize=1;rounded=1;labelBackgroundColor=none;fillColor=#23A2D9;fontSize=12;fontColor=#ffffff;align=center;strokeColor=#0E7DAD;metaEdit=1;points=[[0.5,0,0],[1,0.25,0],[1,0.5,0],[1,0.75,0],[0.5,1,0],[0,0.75,0],[0,0.5,0],[0,0.25,0]];resizable=0;" vertex="1" parent="1">
            <mxGeometry x="580" y="690" width="200" height="170" as="geometry" />
          </mxCell>
        </object>
        <mxCell id="Z2buCt_3wFcI3UqMt01c-1" style="edgeStyle=orthogonalEdgeStyle;rounded=0;orthogonalLoop=1;jettySize=auto;html=1;entryX=0;entryY=0.5;entryDx=0;entryDy=0;entryPerimeter=0;exitX=1;exitY=0.75;exitDx=0;exitDy=0;exitPerimeter=0;" edge="1" parent="1" source="xDdKFl7v-tcq0Z0Ji0Xj-40" target="xDdKFl7v-tcq0Z0Ji0Xj-45">
          <mxGeometry relative="1" as="geometry" />
        </mxCell>
        <mxCell id="-zmdmKBO489XgDHY3_64-10" value="REST" style="edgeLabel;html=1;align=center;verticalAlign=middle;resizable=0;points=[];" vertex="1" connectable="0" parent="Z2buCt_3wFcI3UqMt01c-1">
          <mxGeometry x="-0.7344" y="1" relative="1" as="geometry">
            <mxPoint as="offset" />
          </mxGeometry>
        </mxCell>
        <mxCell id="Z2buCt_3wFcI3UqMt01c-2" value="Так же используется как Strangler Facade. Этого функционала не существовало до этого, поэтому удобно просто перекидывать соответствующие API вызовы на новый сервис" style="text;html=1;align=center;verticalAlign=middle;whiteSpace=wrap;rounded=0;strokeColor=default;dashed=1;" vertex="1" parent="1">
          <mxGeometry x="-370" y="538" width="300" height="100" as="geometry" />
        </mxCell>
        <mxCell id="Z2buCt_3wFcI3UqMt01c-3" style="edgeStyle=orthogonalEdgeStyle;rounded=0;orthogonalLoop=1;jettySize=auto;html=1;entryX=0;entryY=0.5;entryDx=0;entryDy=0;entryPerimeter=0;dashed=1;" edge="1" parent="1" source="Z2buCt_3wFcI3UqMt01c-2" target="xDdKFl7v-tcq0Z0Ji0Xj-40">
          <mxGeometry relative="1" as="geometry" />
        </mxCell>
        <object placeholders="1" c4Name="Брокер сообщений" c4Type="Container" c4Technology="Apache Kafka" c4Description="" label="&lt;font style=&quot;font-size: 16px&quot;&gt;&lt;b&gt;%c4Name%&lt;/b&gt;&lt;/font&gt;&lt;div&gt;[%c4Type%:&amp;nbsp;%c4Technology%]&lt;/div&gt;&lt;br&gt;&lt;div&gt;&lt;font style=&quot;font-size: 11px&quot;&gt;&lt;font color=&quot;#E6E6E6&quot;&gt;%c4Description%&lt;/font&gt;&lt;/div&gt;" id="Oz6aCCsp9HaCrQRABKmG-1">
          <mxCell style="shape=cylinder3;size=15;direction=south;whiteSpace=wrap;html=1;boundedLbl=1;rounded=0;labelBackgroundColor=none;fillColor=#23A2D9;fontSize=12;fontColor=#ffffff;align=center;strokeColor=#0E7DAD;metaEdit=1;points=[[0.5,0,0],[1,0.25,0],[1,0.5,0],[1,0.75,0],[0.5,1,0],[0,0.75,0],[0,0.5,0],[0,0.25,0]];resizable=0;" vertex="1" parent="1">
            <mxGeometry x="1350" y="518" width="240" height="120" as="geometry" />
          </mxCell>
        </object>
        <mxCell id="Oz6aCCsp9HaCrQRABKmG-2" value="Признаюсь Kafka тут очень на вырост. Пока просто чтобы она была в инфраструктуре. Ставить адаптеры перед каждым legacy модулем тоже можно, но это вносит много не совсем нужных изменений в систему.&lt;div&gt;&lt;br&gt;&lt;/div&gt;&lt;div&gt;Более того в текущих условиях необходимости в EDA не существует. Но неплохо иметь в виду брокер сообщений при проектировании сервисов из-за специфических требования, включая идемпотентность&lt;/div&gt;" style="text;html=1;align=center;verticalAlign=middle;whiteSpace=wrap;rounded=0;dashed=1;strokeColor=default;" vertex="1" parent="1">
          <mxGeometry x="1840" y="250" width="410" height="130" as="geometry" />
        </mxCell>
        <mxCell id="Oz6aCCsp9HaCrQRABKmG-3" style="edgeStyle=orthogonalEdgeStyle;rounded=0;orthogonalLoop=1;jettySize=auto;html=1;entryX=0.5;entryY=0;entryDx=0;entryDy=0;entryPerimeter=0;dashed=1;" edge="1" parent="1" source="Oz6aCCsp9HaCrQRABKmG-2" target="Oz6aCCsp9HaCrQRABKmG-1">
          <mxGeometry relative="1" as="geometry">
            <Array as="points">
              <mxPoint x="2045" y="440" />
              <mxPoint x="1710" y="440" />
              <mxPoint x="1710" y="578" />
            </Array>
          </mxGeometry>
        </mxCell>
        <object placeholders="1" c4Name="Кластер БД" c4Type="Container" c4Technology="Oracle RAC" c4Description="Высокодоступный кластер БД на базе технологий Oracle" label="&lt;font style=&quot;font-size: 16px&quot;&gt;&lt;b&gt;%c4Name%&lt;/b&gt;&lt;/font&gt;&lt;div&gt;[%c4Type%:&amp;nbsp;%c4Technology%]&lt;/div&gt;&lt;br&gt;&lt;div&gt;&lt;font style=&quot;font-size: 11px&quot;&gt;&lt;font color=&quot;#E6E6E6&quot;&gt;%c4Description%&lt;/font&gt;&lt;/div&gt;" id="Oz6aCCsp9HaCrQRABKmG-4">
          <mxCell style="shape=cylinder3;size=15;whiteSpace=wrap;html=1;boundedLbl=1;rounded=0;labelBackgroundColor=none;fillColor=#23A2D9;fontSize=12;fontColor=#ffffff;align=center;strokeColor=#0E7DAD;metaEdit=1;points=[[0.5,0,0],[1,0.25,0],[1,0.5,0],[1,0.75,0],[0.5,1,0],[0,0.75,0],[0,0.5,0],[0,0.25,0]];resizable=0;" vertex="1" parent="1">
            <mxGeometry x="980" y="518" width="240" height="120" as="geometry" />
          </mxCell>
        </object>
        <mxCell id="Oz6aCCsp9HaCrQRABKmG-5" style="edgeStyle=orthogonalEdgeStyle;rounded=0;orthogonalLoop=1;jettySize=auto;html=1;entryX=0;entryY=0.25;entryDx=0;entryDy=0;entryPerimeter=0;" edge="1" parent="1" source="xDdKFl7v-tcq0Z0Ji0Xj-41" target="Oz6aCCsp9HaCrQRABKmG-4">
          <mxGeometry relative="1" as="geometry" />
        </mxCell>
        <mxCell id="-zmdmKBO489XgDHY3_64-12" value="Клиент БД" style="edgeLabel;html=1;align=center;verticalAlign=middle;resizable=0;points=[];" vertex="1" connectable="0" parent="Oz6aCCsp9HaCrQRABKmG-5">
          <mxGeometry x="-0.4299" y="2" relative="1" as="geometry">
            <mxPoint as="offset" />
          </mxGeometry>
        </mxCell>
        <mxCell id="Oz6aCCsp9HaCrQRABKmG-6" style="edgeStyle=orthogonalEdgeStyle;rounded=0;orthogonalLoop=1;jettySize=auto;html=1;entryX=0;entryY=0.75;entryDx=0;entryDy=0;entryPerimeter=0;" edge="1" parent="1" source="xDdKFl7v-tcq0Z0Ji0Xj-45" target="Oz6aCCsp9HaCrQRABKmG-4">
          <mxGeometry relative="1" as="geometry" />
        </mxCell>
        <mxCell id="-zmdmKBO489XgDHY3_64-11" value="Клиент БД" style="edgeLabel;html=1;align=center;verticalAlign=middle;resizable=0;points=[];" vertex="1" connectable="0" parent="Oz6aCCsp9HaCrQRABKmG-6">
          <mxGeometry x="-0.08" y="2" relative="1" as="geometry">
            <mxPoint y="1" as="offset" />
          </mxGeometry>
        </mxCell>
        <object placeholders="1" c4Name="Desktop клиент для АБС" c4Type="Container" c4Technology="Delphi" c4Description="GUI" label="&lt;font style=&quot;font-size: 16px&quot;&gt;&lt;b&gt;%c4Name%&lt;/b&gt;&lt;/font&gt;&lt;div&gt;[%c4Type%:&amp;nbsp;%c4Technology%]&lt;/div&gt;&lt;br&gt;&lt;div&gt;&lt;font style=&quot;font-size: 11px&quot;&gt;&lt;font color=&quot;#E6E6E6&quot;&gt;%c4Description%&lt;/font&gt;&lt;/div&gt;" id="Oz6aCCsp9HaCrQRABKmG-7">
          <mxCell style="shape=mxgraph.c4.webBrowserContainer2;whiteSpace=wrap;html=1;boundedLbl=1;rounded=0;labelBackgroundColor=none;strokeColor=#118ACD;fillColor=#23A2D9;strokeColor=#118ACD;strokeColor2=#0E7DAD;fontSize=12;fontColor=#ffffff;align=center;metaEdit=1;points=[[0.5,0,0],[1,0.25,0],[1,0.5,0],[1,0.75,0],[0.5,1,0],[0,0.75,0],[0,0.5,0],[0,0.25,0]];resizable=0;" vertex="1" parent="1">
            <mxGeometry x="1350" y="740" width="240" height="160" as="geometry" />
          </mxCell>
        </object>
        <object placeholders="1" c4Name="АБС" c4Type="Container" c4Technology="PL-SQL" c4Description="Ядро АБС" label="&lt;font style=&quot;font-size: 16px&quot;&gt;&lt;b&gt;%c4Name%&lt;/b&gt;&lt;/font&gt;&lt;div&gt;[%c4Type%: %c4Technology%]&lt;/div&gt;&lt;br&gt;&lt;div&gt;&lt;font style=&quot;font-size: 11px&quot;&gt;&lt;font color=&quot;#E6E6E6&quot;&gt;%c4Description%&lt;/font&gt;&lt;/div&gt;" id="Oz6aCCsp9HaCrQRABKmG-8">
          <mxCell style="rounded=1;whiteSpace=wrap;html=1;fontSize=11;labelBackgroundColor=none;fillColor=#23A2D9;fontColor=#ffffff;align=center;arcSize=10;strokeColor=#0E7DAD;metaEdit=1;resizable=0;points=[[0.25,0,0],[0.5,0,0],[0.75,0,0],[1,0.25,0],[1,0.5,0],[1,0.75,0],[0.75,1,0],[0.5,1,0],[0.25,1,0],[0,0.75,0],[0,0.5,0],[0,0.25,0]];" vertex="1" parent="1">
            <mxGeometry x="980" y="760" width="240" height="120" as="geometry" />
          </mxCell>
        </object>
        <mxCell id="Oz6aCCsp9HaCrQRABKmG-9" style="edgeStyle=orthogonalEdgeStyle;rounded=0;orthogonalLoop=1;jettySize=auto;html=1;entryX=0.5;entryY=1;entryDx=0;entryDy=0;entryPerimeter=0;" edge="1" parent="1" source="Oz6aCCsp9HaCrQRABKmG-8" target="Oz6aCCsp9HaCrQRABKmG-4">
          <mxGeometry relative="1" as="geometry" />
        </mxCell>
        <mxCell id="-zmdmKBO489XgDHY3_64-13" value="Клиент БД" style="edgeLabel;html=1;align=center;verticalAlign=middle;resizable=0;points=[];" vertex="1" connectable="0" parent="Oz6aCCsp9HaCrQRABKmG-9">
          <mxGeometry x="-0.1186" y="-3" relative="1" as="geometry">
            <mxPoint as="offset" />
          </mxGeometry>
        </mxCell>
        <mxCell id="ggkVWbNkr6Pd8wY1KrYd-1" style="edgeStyle=orthogonalEdgeStyle;rounded=0;orthogonalLoop=1;jettySize=auto;html=1;entryX=0.5;entryY=0;entryDx=0;entryDy=0;entryPerimeter=0;" edge="1" parent="1" source="xDdKFl7v-tcq0Z0Ji0Xj-11" target="xDdKFl7v-tcq0Z0Ji0Xj-40">
          <mxGeometry relative="1" as="geometry" />
        </mxCell>
        <mxCell id="-zmdmKBO489XgDHY3_64-8" value="REST" style="edgeLabel;html=1;align=center;verticalAlign=middle;resizable=0;points=[];" vertex="1" connectable="0" parent="ggkVWbNkr6Pd8wY1KrYd-1">
          <mxGeometry x="-0.1631" y="5" relative="1" as="geometry">
            <mxPoint as="offset" />
          </mxGeometry>
        </mxCell>
        <mxCell id="-zmdmKBO489XgDHY3_64-2" style="edgeStyle=orthogonalEdgeStyle;rounded=0;orthogonalLoop=1;jettySize=auto;html=1;entryX=1;entryY=0.5;entryDx=0;entryDy=0;entryPerimeter=0;" edge="1" parent="1" source="Oz6aCCsp9HaCrQRABKmG-7" target="Oz6aCCsp9HaCrQRABKmG-8">
          <mxGeometry relative="1" as="geometry" />
        </mxCell>
        <mxCell id="-zmdmKBO489XgDHY3_64-15" value="Использует" style="edgeLabel;html=1;align=center;verticalAlign=middle;resizable=0;points=[];" vertex="1" connectable="0" parent="-zmdmKBO489XgDHY3_64-2">
          <mxGeometry x="0.0534" y="2" relative="1" as="geometry">
            <mxPoint as="offset" />
          </mxGeometry>
        </mxCell>
        <mxCell id="-zmdmKBO489XgDHY3_64-4" style="edgeStyle=orthogonalEdgeStyle;rounded=0;orthogonalLoop=1;jettySize=auto;html=1;entryX=0.5;entryY=1;entryDx=0;entryDy=0;entryPerimeter=0;" edge="1" parent="1" source="xDdKFl7v-tcq0Z0Ji0Xj-3" target="Oz6aCCsp9HaCrQRABKmG-7">
          <mxGeometry relative="1" as="geometry">
            <Array as="points">
              <mxPoint x="1470" y="1070" />
            </Array>
          </mxGeometry>
        </mxCell>
        <mxCell id="-zmdmKBO489XgDHY3_64-7" value="Использует" style="edgeLabel;html=1;align=center;verticalAlign=middle;resizable=0;points=[];" vertex="1" connectable="0" parent="-zmdmKBO489XgDHY3_64-4">
          <mxGeometry x="-0.363" y="1" relative="1" as="geometry">
            <mxPoint as="offset" />
          </mxGeometry>
        </mxCell>
        <mxCell id="-zmdmKBO489XgDHY3_64-5" style="edgeStyle=orthogonalEdgeStyle;rounded=0;orthogonalLoop=1;jettySize=auto;html=1;entryX=1;entryY=0.5;entryDx=0;entryDy=0;entryPerimeter=0;" edge="1" parent="1" source="xDdKFl7v-tcq0Z0Ji0Xj-18" target="Oz6aCCsp9HaCrQRABKmG-7">
          <mxGeometry relative="1" as="geometry" />
        </mxCell>
        <mxCell id="-zmdmKBO489XgDHY3_64-6" value="Использует" style="edgeLabel;html=1;align=center;verticalAlign=middle;resizable=0;points=[];" vertex="1" connectable="0" parent="-zmdmKBO489XgDHY3_64-5">
          <mxGeometry x="-0.6546" y="2" relative="1" as="geometry">
            <mxPoint as="offset" />
          </mxGeometry>
        </mxCell>
      </root>
    </mxGraphModel>
  </diagram>
</mxfile>
